<svg width="32" height="32" viewBox="0 0 32 32" fill="none" xmlns="http://www.w3.org/2000/svg">
<path d="M23.5981 15.674L10.6361 8.546C10.5211 8.483 10.3811 8.485 10.2681 8.552C10.1551 8.619 10.0861 8.74 10.0861 8.872V23.129C10.0861 23.26 10.1551 23.382 10.2681 23.449C10.3261 23.484 10.3921 23.501 10.4571 23.501C10.5191 23.501 10.5801 23.486 10.6361 23.455L23.5981 16.327C23.7171 16.262 23.7911 16.137 23.7911 16.001C23.7901 15.864 23.7161 15.74 23.5981 15.674Z" fill="#6A6A6A"/>
<path d="M16 0.25C7.315 0.25 0.25 7.315 0.25 16C0.25 24.685 7.315 31.75 16 31.75C24.685 31.75 31.75 24.685 31.75 16C31.75 7.315 24.685 0.25 16 0.25ZM16 30.25C8.143 30.25 1.75 23.857 1.75 16C1.75 8.143 8.143 1.75 16 1.75C23.857 1.75 30.25 8.143 30.25 16C30.25 23.857 23.857 30.25 16 30.25Z" fill="#6A6A6A"/>
</svg>
