<svg version="1.2" baseProfile="tiny" viewBox="0 0 32 32" xmlns:xlink="http://www.w3.org/1999/xlink" xmlns="http://www.w3.org/2000/svg">
<path style="fill:#ffffff;" d="M9.78503,15.606L15.24,7.54299C15.488,7.17699,15.392,6.67999,15.026,6.43199C14.66,6.18499,14.163,6.27999,13.915,6.64599L8.17003,15.137C7.99403,15.398,7.98603,15.737,8.15203,16.005L13.897,25.325C14.048,25.57,14.31,25.705,14.579,25.705C14.722,25.705,14.867,25.667,14.998,25.586C15.374,25.354,15.491,24.861,15.259,24.485L9.78503,15.606Z M23.848,24.486L18.374,15.606L23.829,7.54299C24.077,7.17699,23.981,6.67999,23.615,6.43199C23.249,6.18499,22.752,6.27999,22.504,6.64599L16.759,15.137C16.583,15.398,16.575,15.737,16.741,16.005L22.486,25.325C22.637,25.57,22.899,25.705,23.168,25.705C23.311,25.705,23.456,25.667,23.587,25.586C23.963,25.354,24.08,24.862,23.848,24.486Z"/>
</svg>