<svg version="1.2" baseProfile="tiny" viewBox="0 0 11.572 18.000" xmlns:xlink="http://www.w3.org/1999/xlink" xmlns="http://www.w3.org/2000/svg">
<path style="fill:#ffffff;" d="M3.066,16.934C3.066,17.521,2.571,18,1.962,18H1.104C0.497,18,0,17.521,0,16.934V1.066   C0,0.479,0.497,0,1.104,0h0.859c0.608,0,1.104,0.479,1.104,1.066V16.934z M11.572,1.066C11.572,0.479,11.075,0,10.467,0H9.608   C9.001,0,8.505,0.479,8.505,1.066v15.868C8.505,17.521,9.001,18,9.608,18h0.858c0.608,0,1.105-0.479,1.105-1.066V1.066z"/>
</svg>